<svg width="30" height="24" viewBox="0 0 30 24" fill="none" xmlns="http://www.w3.org/2000/svg">
<path d="M29.7524 0.95055C29.4585 0.591878 28.9712 0.458867 28.5379 0.618481L1.01899 10.5826C0.469211 10.7828 0.0833163 11.2683 0.0116763 11.8497C-0.0592771 12.4283 0.195239 12.9897 0.672687 13.3128L4.60625 16.0033C4.98734 16.264 5.47738 16.292 5.88547 16.0762L14.4182 11.5678L7.76802 16.5431C7.45583 16.7768 7.26929 17.1495 7.26929 17.5398V22.1484C7.26929 22.6238 7.52953 23.0593 7.94838 23.2854C8.36792 23.5116 8.87467 23.4891 9.27315 23.2258L12.2617 21.2396L15.2005 23.2474C15.458 23.4242 15.7647 23.5173 16.0741 23.5173C16.1787 23.5173 16.2838 23.5065 16.3873 23.4849C16.7999 23.3987 17.165 23.1432 17.3891 22.7841L29.8396 2.2137C30.0819 1.81765 30.0472 1.31083 29.7524 0.95055ZM16.0085 21.6666L12.965 19.5873C12.7533 19.4423 12.5093 19.3699 12.2656 19.3699C12.0271 19.3699 11.7883 19.4393 11.5794 19.5783L9.02802 21.274V17.7999L20.7708 9.01447C21.2952 8.62209 21.4272 7.90796 21.0777 7.35344C20.728 6.79892 20.0279 6.61155 19.449 6.91748L5.34073 14.3718L2.01371 12.0962L27.3548 2.92072L16.0085 21.6666Z" fill="white"/>
</svg>
