<svg width="30" height="18" viewBox="0 0 30 18" fill="none" xmlns="http://www.w3.org/2000/svg">
<path d="M26.7035 11.9708L26.6872 11.9557C26.4311 11.7188 25.6465 10.9537 25.3819 10.6194C25.0713 10.2022 25.1429 9.92885 25.3757 9.51927C25.6698 9.00167 26.2592 8.20773 26.8829 7.36701C28.8806 4.67514 30.1703 2.8116 29.9048 1.48791L29.7618 0.78089L22.3842 0.7841C22.3584 0.853817 21.9734 2.54833 20.3488 5.43376C19.1707 7.52594 18.398 8.1832 18.1259 8.29924L18.0838 8.28639C17.9952 8.17677 17.8405 7.88094 17.7768 7.11842C17.7105 6.31966 17.7693 5.35258 17.8263 4.41737C17.8929 3.32072 17.9503 2.37358 17.8128 1.69592L17.5887 0.591922C17.3179 0.548579 16.3266 0.165369 13.5647 0.136244C11.1736 0.111705 10.4711 0.457764 10.1262 0.762773L8.98523 1.77159L10.4274 2.25777C10.9763 2.44284 11.1585 2.65635 11.3079 3.71471C11.4054 4.40453 11.4565 5.56379 11.3512 6.59876C11.1999 8.08275 10.8371 8.35886 10.8183 8.37354C10.7559 8.35221 10.226 8.1199 9.30612 6.17129C8.668 4.81985 8.10861 3.22119 7.69983 2.0539C7.23199 0.717136 7.31622 1.00173 7.07887 0.37016L-0.0585938 0.369931L0.403291 1.56703C2.32888 6.56252 4.09562 10.4637 6.45997 13.2656C9.07221 16.3613 12.3187 17.9822 16.6917 17.9822H17.5706V17.1016C17.5706 16.2783 17.6386 15.6855 17.7844 15.236C17.8734 14.9622 17.9917 14.7358 18.116 14.4985C18.3005 14.149 18.4809 13.9992 18.5793 13.977C18.6686 13.9566 18.8256 14.0222 18.9995 14.1522C19.4989 14.5253 19.8954 15.0156 20.3151 15.5348C20.9208 16.284 21.547 17.0585 22.5406 17.5655C23.0835 17.8426 24.0786 17.9825 24.6264 17.9825C24.7712 17.9825 29.9351 17.9822 29.9415 17.9822L29.9037 17.0654C29.8474 15.6944 28.7705 13.9802 26.7035 11.9708ZM24.6605 16.221H24.6463C24.2686 16.2272 23.5479 16.1031 23.3382 15.9962C22.6777 15.6591 22.216 15.0879 21.6811 14.4265C21.2117 13.8456 20.7262 13.245 20.0503 12.7402C19.5037 12.3318 19.0073 12.2123 18.6132 12.2123C18.4557 12.2123 18.3142 12.2313 18.1929 12.2588C17.7354 12.362 17.081 12.6918 16.5608 13.6777C16.4141 13.9582 16.2477 14.2758 16.1129 14.6913C15.9716 15.1262 15.8837 15.6094 15.8419 16.1971C12.5464 16.0095 9.97492 14.7033 7.80237 12.1286C5.78248 9.73461 4.19335 6.38617 2.51038 2.1305C2.63215 2.1305 5.68338 2.13095 5.86351 2.13095C5.91867 2.28621 5.97818 2.45637 6.04135 2.63663C6.48195 3.89588 7.08551 5.62021 7.79665 7.09067C8.81494 9.19637 9.74489 10.1355 10.8117 10.1355C11.3443 10.1355 11.822 9.90936 12.193 9.4812C12.722 8.87096 13.0291 7.86374 13.1321 6.40176C13.2134 5.24892 13.1378 4.10067 13.0486 3.46795C12.9749 2.94737 12.8698 2.40088 12.6135 1.91126C13.7059 1.86195 15.1687 1.93992 16.0955 2.07316C16.1797 2.53274 16.1248 3.43607 16.0717 4.31005C15.9433 6.42126 15.8107 8.59989 16.9261 9.61926C17.1222 9.79859 17.3303 9.89468 17.3362 9.89858L17.9039 10.0731C18.1229 10.0054 19.3916 10.6503 21.7939 6.44969C22.5637 5.10376 23.2803 3.5528 23.6662 2.53985C24.5611 2.53801 27.6101 2.54145 27.9683 2.54191C27.4608 3.66081 26.2583 5.25672 25.4723 6.31599C24.787 7.23927 24.1954 8.03665 23.8482 8.64759C23.2032 9.78254 23.3117 10.7941 23.9834 11.6864L23.994 11.7002C24.3689 12.1783 25.2947 13.0636 25.4867 13.242C26.8779 14.5953 27.5483 15.5674 27.8673 16.2207H24.6605V16.221Z" fill="white"/>
</svg>
