<svg id="Слой_1" data-name="Слой 1" xmlns="http://www.w3.org/2000/svg" viewBox="0 0 30 22.72"><defs><style>.cls-1{fill:#fff;}</style></defs><title>youtube</title><path class="cls-1" d="M29.78,6V6A6.93,6.93,0,0,0,28.46,2.5,5,5,0,0,0,25.22,1H25c-4-.29-9.95-.33-10-.33h0c-.06,0-6,0-10,.33H4.75A4.75,4.75,0,0,0,1.54,2.55,7.16,7.16,0,0,0,.22,6V6C.21,6.1,0,8.49,0,10.89v2.24c0,2.41.21,4.8.22,4.9h0a6.83,6.83,0,0,0,1.32,3.44A5,5,0,0,0,4.88,23a1.82,1.82,0,0,1,.3,0h.07c2.29.21,9.47.32,9.77.33h0c.06,0,6.05,0,10-.33h.05l.17,0a4.65,4.65,0,0,0,3.18-1.52,7.16,7.16,0,0,0,1.32-3.42v0c0-.1.22-2.49.22-4.9V10.89C30,8.49,29.79,6.1,29.78,6Zm-1.54,7.13c0,2.23-.19,4.52-.21,4.73a5.7,5.7,0,0,1-.86,2.43,2.87,2.87,0,0,1-2.08,1l-.18,0c-3.84.27-9.6.32-9.87.32s-7.37-.12-9.59-.32l-.37-.05a3.26,3.26,0,0,1-2.25-.94v0A5.06,5.06,0,0,1,2,17.86c0-.16-.21-2.47-.21-4.73V10.89c0-2.22.19-4.51.21-4.72a5.58,5.58,0,0,1,.86-2.44A3,3,0,0,1,5,2.73l.14,0c3.9-.28,9.7-.32,9.91-.32s6,0,9.87.32l.15,0a3.14,3.14,0,0,1,2.16,1h0A5.21,5.21,0,0,1,28,6.16c0,.15.21,2.47.21,4.73Z" transform="translate(0 -0.63)"/><path class="cls-1" d="M19.9,11,13.28,7.33a1.21,1.21,0,0,0-1.8,1.07v7.19a1.2,1.2,0,0,0,.59,1,1.17,1.17,0,0,0,.62.18,1.19,1.19,0,0,0,.58-.15L19.9,13.1A1.22,1.22,0,0,0,20.54,12,1.2,1.2,0,0,0,19.9,11Zm-6.67,3.72V9.31l5,2.71Z" transform="translate(0 -0.63)"/></svg>